# AST/ASF file generated using VICON BodyLanguage
# -----------------------------------------------
:version 1.10
:name VICON
:units
  mass 1.0
  length 0.45
  angle deg
:documentation
   .ast/.asf automatically generated from VICON data using
   VICON BodyBuilder and BodyLanguage model FoxedUp or BRILLIANT.MOD
:root
   order TX TY TZ RX RY RZ
   axis XYZ
   position 0 0 0  
   orientation 0 0 0 
:bonedata
  begin
     id 1 
     name lhipjoint
     direction 0.611804 -0.747784 0.257906 
     length 2.29243 
     axis 0 0 0  XYZ
  end
  begin
     id 2 
     name lfemur
     direction 0.34202 -0.939693 0  
     length 7.31159  
     axis 0 0 20  XYZ
    dof rx ry rz
    limits (-160.0 20.0)
           (-70.0 70.0)
           (-60.0 70.0)
  end
  begin
     id 3 
     name ltibia
     direction 0.34202 -0.939693 0   
     length 7.33391   
     axis 0 0 20   XYZ
    dof rx
    limits (-10.0 170.0)
  end
  begin
     id 4 
     name lfoot
     direction 0.122263 -0.335914 0.933924   
     length 1.76083   
     axis -90 7.62852e-016 20   XYZ
    dof rx rz
    limits (-45.0 90.0)
           (-70.0 20.0)
  end
  begin
     id 5 
     name ltoes
     direction 1.53533e-011 -4.2177e-011 1   
     length 0.879206   
     axis -90 7.62852e-016 20   XYZ
    dof rx
    limits (-90.0 20.0)
  end
  begin
     id 6 
     name rhipjoint
     direction -0.646469 -0.721248 0.248754   
     length 2.37677  
     axis 0 0 0  XYZ 
  end
  begin
     id 7 
     name rfemur
     direction -0.34202 -0.939693 0   
     length 7.18623   
     axis 0 0 -20   XYZ
    dof rx ry rz
    limits (-160.0 20.0)
           (-70.0 70.0)
           (-70.0 60.0)
  end
  begin
     id 8 
     name rtibia
     direction -0.34202 -0.939693 0   
     length 7.36567   
     axis 0 0 -20   XYZ
    dof rx
    limits (-10.0 170.0)
 end
 begin
     id 9 
     name rfoot
     direction -0.126681 -0.348054 0.928876   
     length 1.71902  
     axis -90 -7.62852e-016 -20   XYZ
    dof rx rz
    limits (-45.0 90.0)
           (-20.0 70.0)
  end
  begin
     id 10 
     name rtoes
     direction -1.53551e-011 -4.21898e-011 1   
     length 0.857792   
     axis -90 -7.62852e-016 -20   XYZ
    dof rx
    limits (-90.0 20.0)
  end
  begin
     id 11 
     name lowerback
     direction 0.0106509 0.999778 0.0181844   
     length 2.07668   
     axis 0 0 0   XYZ
    dof rx ry rz
    limits (-20.0 45.0)
           (-30.0 30.0)
           (-30.0 30.0)
  end
  begin
     id 12 
     name upperback
     direction -0.00456018 0.999989 -0.000590935   
     length 2.08011   
     axis 0 0 0   XYZ
    dof rx ry rz
    limits (-20.0 45.0)
           (-30.0 30.0)
           (-30.0 30.0)
  end
  begin
     id 13 
     name thorax
     direction -0.00910382 0.999916 -0.00923765   
     length 2.07397   
     axis 0 0 0   XYZ
    dof rx ry rz
    limits (-20.0 45.0)
           (-30.0 30.0)
           (-30.0 30.0)
  end
  begin
     id 14 
     name lowerneck
     direction 0.00171967 0.99778 0.0665733   
     length 1.67556   
     axis 0 0 0   XYZ
    dof rx ry rz
    limits (-20.0 45.0)
           (-30.0 30.0)
           (-30.0 30.0)
  end
  begin
     id 15 
     name upperneck
     direction -0.0143166 0.991302 -0.130828   
     length 1.68462   
     axis 0 0 0   XYZ
    dof rx ry rz
    limits (-20.0 45.0)
           (-30.0 30.0)
           (-30.0 30.0)
  end
  begin
     id 16
     name head
     direction -0.00606378 0.998665 -0.0512995  
     length 1.69269  
     axis 0 0 0   XYZ
    dof rx ry rz
    limits (-20.0 45.0)
           (-30.0 30.0)
           (-30.0 30.0)
  end
  begin
     id 17 
     name lclavicle
     direction 0.9638 0.179341 0.197297  
     length 4.12888  
     axis 0 0 0   XYZ
    dof ry rz
    limits (-20.0 10.0)
           (0.0 20.0)
  end
  begin
     id 18 
     name lhumerus
     direction 1 -4.48972e-011 -2.47351e-027   
     length 5.01834   
     axis -180 -30 -90   XYZ
    dof rx ry rz
    limits (-60.0 90.0)
           (-90.0 90.0)
           (-90.0 90.0)
  end
  begin
     id 19
     name lradius
     direction 1 -4.48965e-011 1.51591e-026   
     length 3.4869   
     axis -180 -30 -90   XYZ
    dof rx
    limits (-10.0 170.0)
  end
  begin
     id 20
     name lwrist
     direction 1 -4.48957e-011 2.70032e-026   
     length 1.74345   
     axis -1.81515e-014 90 90   XYZ
    dof ry
    limits (-180.0 0.0)
 end
  begin
     id 21 
     name lhand
     direction 1 -4.48951e-011 5.40064e-026   
     length 0.76799   
     axis -3.44607e-014 90 90   XYZ
    dof rx rz
    limits (-90.0 90.0)
           (-45.0 45.0)
  end
  begin
     id 22 
     name lfingers
     direction 1 -4.48971e-011 1.08013e-025   
     length 0.619174   
     axis -6.89214e-014 90 90   XYZ
    dof rx
    limits (0.0 90.0)
  end
  begin
     id 23
     name lthumb
     direction 0.707107 -6.34931e-011 0.707107   
     length 0.889013   
     axis -90 45 2.85299e-015   XYZ
    dof rx rz
    limits (-45.0 45.0)
           (-45.0 45.0)
  end
  begin
     id 24 
     name rclavicle
     direction -0.961409 0.252588 0.109054   
     length 4.04305  
     axis 0 0 0   XYZ 
    dof ry rz
    limits (-10.0 20.0)
           (-20.0 0.0)
  end
  begin
     id 25 
     name rhumerus
     direction -1 -4.4897e-011 1.33872e-017  
     length 4.70164   
     axis -180 30 90   XYZ
    dof rx ry rz
    limits (-90.0 60.0)
           (-90.0 90.0)
           (-90.0 90.0)
  end
  begin
     id 26 
     name rradius
     direction -1 -4.48954e-011 1.83844e-026   
     length 3.49911   
     axis -180 30 90   XYZ
    dof rx
    limits (-10.0 170.0)
  end
  begin
     id 27 
     name rwrist
     direction -1 -4.49008e-011 2.70032e-026   
     length 1.74955   
     axis -1.81515e-014 -90 -90   XYZ
    dof ry
    limits (-180.0 0.0)
  end
  begin
     id 28
     name rhand
     direction -1 -4.48916e-011 5.40064e-026   
     length 0.739335   
     axis -3.44607e-014 -90 -90   XYZ
    dof rx rz
    limits (-90.0 90.0)
           (-45.0 45.0)
  end
  begin
     id 29
     name rfingers
     direction -1 -4.48987e-011 1.08013e-025   
     length 0.596071   
     axis -6.89214e-014 -90 -90   XYZ
    dof rx
    limits (0.0 90.0)
  end
  begin
     id 30
     name rthumb
     direction -0.707107 -6.34935e-011 0.707107   
     length 0.855843   
     axis -90 -45 -2.85299e-015   XYZ
    dof rx rz
    limits (-45.0 45.0)
           (-45.0 45.0)
  end
:hierarchy
  begin
    root lhipjoint rhipjoint lowerback
    lhipjoint lfemur
    lfemur ltibia
    ltibia lfoot
    lfoot ltoes
    rhipjoint rfemur
    rfemur rtibia
    rtibia rfoot
    rfoot rtoes
    lowerback upperback
    upperback thorax
    thorax lowerneck lclavicle rclavicle
    lowerneck upperneck
    upperneck head
    lclavicle lhumerus
    lhumerus lradius
    lradius lwrist
    lwrist lhand lthumb
    lhand lfingers
    rclavicle rhumerus
    rhumerus rradius
    rradius rwrist
    rwrist rhand rthumb
    rhand rfingers
  end

#!OML:ASF I:\salsa\salsa 7_09\Patient 1\Session 1\dancermale.ASF
:FULLY-SPECIFIED
:DEGREES
75
root -16.576 17.5488 -0.458267 -124.515 84.5987 -137.351
lowerback -17.2693 2.18534 3.52675
upperback -2.13577 2.3252 0.461908
thorax 7.50033 1.28087 -0.952326
lowerneck -9.23207 -3.87017 -1.40485
upperneck 13.7939 -5.10352 1.05896
head 5.74966 -2.43859 0.175005
rclavicle 1.83721e-014 5.66536e-015
rhumerus -49.2083 34.6411 -120.076
rradius 105.27
rwrist -17.3528
rhand -24.709 -1.41587
rfingers 7.12502
rthumb 1.79259 -31.3881
lclavicle 1.83721e-014 5.66536e-015
lhumerus -42.6097 -41.5237 117.545
lradius 107.198
lwrist 20.1741
lhand -26.7444 40.0183
lfingers 7.12502
lthumb -0.173233 69.998
rfemur -12.7187 3.77159 22.263
rtibia 8.87034
rfoot -13.4734 -12.5374
rtoes 3.55803
lfemur -12.0051 2.54372 -15.4752
ltibia 7.74512
lfoot -14.2993 0.311613
ltoes -5.63168
76
root -16.557 17.5485 -0.448423 -125.216 84.7441 -137.886
lowerback -17.2829 2.15475 3.41111
upperback -2.04209 2.30006 0.454561
thorax 7.60406 1.2654 -0.898328
lowerneck -9.22585 -3.85961 -1.48611
upperneck 13.9102 -5.08972 1.15064
head 5.7896 -2.42742 0.216815
rclavicle 2.43977e-014 1.09332e-014
rhumerus -49.3157 34.6364 -120.159
rradius 105.258
rwrist -17.1661
rhand -24.5363 -0.948832
rfingers 7.12502
rthumb 1.95943 -30.9196
lclavicle 2.43977e-014 1.09332e-014
lhumerus -42.5735 -41.4354 117.549
lradius 107.18
lwrist 20.1646
lhand -26.8965 40.0223
lfingers 7.12502
lthumb -0.320085 70.0018
rfemur -12.479 3.66338 22.1715
rtibia 8.91135
rfoot -13.6443 -12.3923
rtoes 4.23222
lfemur -11.7345 2.54863 -15.6175
ltibia 7.76375
lfoot -14.3834 0.316687
ltoes -5.19811
77
root -16.5364 17.5457 -0.437892 -125.183 84.8603 -137.757
lowerback -17.3805 2.12264 3.31013
upperback -1.96725 2.26692 0.472682
thorax 7.73279 1.24667 -0.824814
lowerneck -9.19172 -3.78156 -1.5204
upperneck 13.9608 -4.99076 1.23605
head 5.80146 -2.37384 0.257082
rclavicle -9.8181e-015 2.57426e-014
rhumerus -49.3327 34.6889 -120.222
rradius 105.208
rwrist -17.1489
rhand -23.9748 -0.490242
rfingers 7.12502
rthumb 2.5017 -30.4553
lclavicle -9.8181e-015 2.57426e-014
lhumerus -42.5249 -41.2527 117.544
lradius 107.122
lwrist 20.154
lhand -27.0074 40.1314
lfingers 7.12502
lthumb -0.4272 70.1107
rfemur -12.3245 3.60812 22.1478
rtibia 8.96645
rfoot -13.79 -12.2482
rtoes 4.63508
lfemur -11.5397 2.46346 -15.6751
ltibia 7.80979
lfoot -14.4665 0.469384
ltoes -5.59692
78
root -16.5171 17.5414 -0.427728 -124.726 84.9385 -137.23
lowerback -17.4797 2.11883 3.26932
upperback -1.92405 2.26202 0.490712
thorax 7.83169 1.24342 -0.779258
lowerneck -8.9967 -3.72905 -1.42832
upperneck 13.9189 -4.91754 1.13417
head 5.74885 -2.34164 0.220497
rclavicle 1.57723e-014 8.69683e-015
rhumerus -49.2782 34.6737 -120.232
rradius 105.087
rwrist -17.086
rhand -23.468 -0.638759
rfingers 7.12502
rthumb 2.99116 -30.5975
lclavicle 1.57723e-014 8.69683e-015
lhumerus -42.5923 -41.0733 117.57
lradius 107.1
lwrist 20.1464
lhand -26.8232 40.1556
lfingers 7.12502
lthumb -0.249343 70.1352
rfemur -12.2041 3.57378 22.1803
rtibia 9.00542
rfoot -13.9167 -12.1356
rtoes 4.84409
lfemur -11.3901 2.46643 -15.6779
ltibia 7.85229
lfoot -14.5781 0.65405
ltoes -6.80188
79
root -16.5015 17.5402 -0.422092 -124.616 85.0561 -137.014
lowerback -17.5454 2.14266 3.27821
upperback -1.83956 2.28528 0.474247
thorax 7.96168 1.25555 -0.792191
lowerneck -8.71458 -3.68889 -1.42241
upperneck 13.8019 -4.86116 1.11833
head 5.66263 -2.31679 0.225788
rclavicle 4.81509e-015 1.14301e-014
rhumerus -49.2015 34.5672 -120.179
rradius 104.928
rwrist -16.9445
rhand -23.9141 -1.7457
rfingers 7.12502
rthumb 2.56028 -31.7101
lclavicle 4.81509e-015 1.14301e-014
lhumerus -42.6348 -40.9674 117.569
lradius 107.112
lwrist 20.0891
lhand -26.7214 40.0184
lfingers 7.12502
lthumb -0.151053 69.9981
rfemur -12.071 3.42517 22.1373
rtibia 9.06304
rfoot -14.0056 -11.9335
rtoes 4.64111
lfemur -11.2169 2.47885 -15.766
ltibia 7.89739
lfoot -14.6616 0.806916
ltoes -7.53564
80
root -16.4859 17.5395 -0.416394 -123.562 85.2903 -135.791
lowerback -17.5561 2.22303 3.27839
upperback -1.72635 2.38768 0.42096
thorax 8.09754 1.30565 -0.821535
lowerneck -8.68517 -3.72504 -1.37211
upperneck 13.9465 -4.91828 1.13306
head 5.70276 -2.33847 0.217181
rclavicle -1.62879e-014 9.93923e-017
rhumerus -49.1608 34.3281 -120.122
rradius 104.834
rwrist -16.7092
rhand -24.0221 -1.46798
rfingers 7.12502
rthumb 2.45604 -31.4336
lclavicle -1.62879e-014 9.93923e-017
lhumerus -42.6794 -40.9304 117.582
lradius 107.084
lwrist 19.9872
lhand -26.9133 39.8123
lfingers 7.12502
lthumb -0.336342 69.7918
rfemur -11.9213 3.3177 22.0556
rtibia 9.19716
rfoot -14.0883 -11.6356
rtoes 4.22766
lfemur -10.9454 2.56213 -15.8854
ltibia 7.93435
lfoot -14.7294 0.955
ltoes -7.64205
81
root -16.4651 17.5372 -0.406549 -122.154 85.577 -134.119
lowerback -17.4827 2.28182 3.15936
upperback -1.62033 2.48578 0.396027
thorax 8.17287 1.34851 -0.757103
lowerneck -8.52827 -3.75153 -1.31888
upperneck 14.0839 -4.96265 1.15217
head 5.71865 -2.35339 0.213152
rclavicle -8.24025e-015 5.1684e-015
rhumerus -49.3129 34.0767 -120.209
rradius 104.845
rwrist -16.3827
rhand -23.9402 -0.870997
rfingers 7.12502
rthumb 2.53513 -30.8357
lclavicle -8.24025e-015 5.1684e-015
lhumerus -42.8148 -40.8228 117.693
lradius 107.06
lwrist 19.8667
lhand -27.0749 39.6966
lfingers 7.12502
lthumb -0.492412 69.6758
rfemur -11.6354 3.31311 21.9669
rtibia 9.30658
rfoot -14.1962 -11.3303
rtoes 4.46245
lfemur -10.5041 2.82665 -16.0052
ltibia 7.88911
lfoot -14.8191 0.964079
ltoes -7.78116
82
root -16.443 17.5364 -0.398334 -121.191 85.7807 -132.9
lowerback -17.3905 2.31392 3.08755
upperback -1.54104 2.54137 0.378107
thorax 8.2084 1.37231 -0.723659
lowerneck -8.27157 -3.71798 -1.27802
upperneck 14.0767 -4.92205 1.15869
head 5.67109 -2.33088 0.217032
rclavicle 5.12336e-015 -1.40143e-014
rhumerus -49.4897 33.8496 -120.348
rradius 104.901
rwrist -16.1632
rhand -23.9356 -0.884012
rfingers 7.12502
rthumb 2.53957 -30.8486
lclavicle 5.12336e-015 -1.40143e-014
lhumerus -43.0424 -40.6882 117.837
lradius 107.074
lwrist 19.7475
lhand -27.0878 39.5251
lfingers 7.12502
lthumb -0.504887 69.5043
rfemur -11.3136 3.24336 21.9132
rtibia 9.36349
rfoot -14.2492 -11.0533
rtoes 4.64647
lfemur -10.084 3.07161 -16.0938
ltibia 7.85418
lfoot -14.9218 0.901972
ltoes -7.97405
83
root -16.4249 17.5367 -0.393684 -120.047 85.9467 -131.558
lowerback -17.3611 2.36407 3.10013
upperback -1.43793 2.60147 0.360225
thorax 8.30839 1.40168 -0.733798
lowerneck -8.15978 -3.6694 -1.23805
upperneck 14.1168 -4.85107 1.09685
head 5.661 -2.29788 0.198492
rclavicle 7.23856e-015 -1.05853e-014
rhumerus -49.433 33.7026 -120.327
rradius 104.884
rwrist -16.0866
rhand -23.9531 -1.5148
rfingers 7.12502
rthumb 2.52263 -31.4796
lclavicle 7.23856e-015 -1.05853e-014
lhumerus -43.1646 -40.6042 117.928
lradius 107.065
lwrist 19.6363
lhand -27.1308 39.1594
lfingers 7.12502
lthumb -0.546443 69.1384
rfemur -11.0842 3.13512 21.8711
rtibia 9.44574
rfoot -14.2636 -10.8153
rtoes 4.49677
lfemur -9.78114 3.07577 -16.1724
ltibia 7.90665
lfoot -15.0317 1.05305
ltoes -7.80833
84
root -16.4072 17.5362 -0.388745 -119.114 86.0941 -130.414
lowerback -17.3682 2.39616 3.09812
upperback -1.29847 2.63575 0.364733
thorax 8.46564 1.41796 -0.715568
lowerneck -8.11667 -3.67607 -1.13871
upperneck 14.2899 -4.84451 0.914843
head 5.70054 -2.29963 0.1254
rclavicle -1.42876e-015 -2.88238e-015
rhumerus -49.2584 33.6632 -120.226
rradius 104.756
rwrist -15.9236
rhand -23.5895 -2.34423
rfingers 7.12502
rthumb 2.87376 -32.3046
lclavicle -1.42876e-015 -2.88238e-015
lhumerus -43.1326 -40.5231 117.952
lradius 107.025
lwrist 19.4685
lhand -27.1412 38.8974
lfingers 7.12502
lthumb -0.556419 68.8765
rfemur -10.8334 3.0756 21.8306
rtibia 9.52017
rfoot -14.2871 -10.6485
rtoes 4.37732
lfemur -9.45701 2.93841 -16.2527
ltibia 7.94423
lfoot -15.1572 1.32271
ltoes -7.54702
85
root -16.3892 17.5341 -0.382257 -118.82 86.2454 -129.866
lowerback -17.3378 2.37977 3.02909
upperback -1.1404 2.61862 0.37716
thorax 8.61712 1.4066 -0.664615
lowerneck -8.00373 -3.66142 -1.03599
upperneck 14.3896 -4.81116 0.746005
head 5.70516 -2.2883 0.059934
rclavicle -5.06746e-015 9.64106e-015
rhumerus -49.2101 33.657 -120.233
rradius 104.691
rwrist -15.6992
rhand -23.1648 -2.96488
rfingers 7.12502
rthumb 3.28395 -32.9193
lclavicle -5.06746e-015 9.64106e-015
lhumerus -43.0289 -40.3665 117.894
lradius 107.008
lwrist 19.273
lhand -27.0657 38.7709
lfingers 7.12502
lthumb -0.48354 68.7501
rfemur -10.5075 3.02901 21.7639
rtibia 9.54472
rfoot -14.3129 -10.5312
rtoes 4.10769
lfemur -9.08649 2.78028 -16.3629
ltibia 7.96191
lfoot -15.2645 1.61191
ltoes -7.71842
86
root -16.3733 17.5318 -0.373918 -117.654 86.4649 -128.422
lowerback -17.2378 2.37086 2.90677
upperback -0.959574 2.6222 0.398897
thorax 8.75277 1.40243 -0.570489
lowerneck -7.88285 -3.57476 -1.02759
upperneck 14.3454 -4.68682 0.699836
head 5.66807 -2.23115 0.0561797
rclavicle -1.22276e-014 -4.52235e-015
rhumerus -49.3231 33.5945 -120.34
rradius 104.728
rwrist -15.5885
rhand -23.2044 -3.50465
rfingers 7.12502
rthumb 3.2457 -33.4597
lclavicle -1.22276e-014 -4.52235e-015
lhumerus -42.8599 -40.1884 117.798
lradius 107.024
lwrist 19.1589
lhand -27.1462 38.66
lfingers 7.12502
lthumb -0.561318 68.639
rfemur -10.1679 3.01366 21.6724
rtibia 9.55666
rfoot -14.2835 -10.3591
rtoes 3.61752
lfemur -8.69217 2.61979 -16.4979
ltibia 7.98914
lfoot -15.2931 1.98415
ltoes -8.02736
87
root -16.358 17.5295 -0.364206 -115.715 86.7067 -126.202
lowerback -17.0844 2.40322 2.78247
upperback -0.790048 2.68536 0.394979
thorax 8.8495 1.42685 -0.490497
lowerneck -7.86204 -3.52295 -1.10196
upperneck 14.4075 -4.62677 0.846169
head 5.68882 -2.19406 0.118137
rclavicle 6.32209e-015 4.2366e-015
rhumerus -49.3837 33.4084 -120.41
rradius 104.718
rwrist -15.5491
rhand -23.0954 -4.19812
rfingers 7.12502
rthumb 3.35094 -34.1515
lclavicle 6.32209e-015 4.2366e-015
lhumerus -42.77 -40.1202 117.719
lradius 107.089
lwrist 19.1208
lhand -27.3184 38.6865
lfingers 7.12502
lthumb -0.727584 68.665
rfemur -9.84971 2.92767 21.5788
rtibia 9.59724
rfoot -14.2641 -10.0652
rtoes 3.38008
lfemur -8.28115 2.4496 -16.6393
ltibia 8.01108
lfoot -15.3227 2.37971
ltoes -8.43593
88
root -16.3424 17.5273 -0.355381 -114.641 86.8917 -124.871
lowerback -16.9428 2.42408 2.65524
upperback -0.6651 2.73637 0.38465
thorax 8.90334 1.44545 -0.419601
lowerneck -7.81589 -3.55599 -1.08144
upperneck 14.5948 -4.67924 0.898886
head 5.74092 -2.21113 0.126684
rclavicle 1.38307e-014 1.00076e-014
rhumerus -49.3426 33.1592 -120.398
rradius 104.651
rwrist -15.6439
rhand -22.8972 -4.50123
rfingers 7.12502
rthumb 3.5424 -34.4515
lclavicle 1.38307e-014 1.00076e-014
lhumerus -42.854 -40.0796 117.694
lradius 107.194
lwrist 19.1514
lhand -27.3256 38.6607
lfingers 7.12502
lthumb -0.73461 68.6392
rfemur -9.56588 2.67703 21.4857
rtibia 9.6595
rfoot -14.2972 -9.70392
rtoes 3.43647
lfemur -7.92678 2.33621 -16.7738
ltibia 8.06538
lfoot -15.4339 2.65053
ltoes -8.74728
89
root -16.329 17.5284 -0.350093 -114.334 87.0602 -124.372
lowerback -16.8601 2.4092 2.55844
upperback -0.548492 2.73259 0.379401
thorax 8.98024 1.43908 -0.371816
lowerneck -7.82483 -3.54243 -1.17084
upperneck 14.8111 -4.66033 0.996371
head 5.8147 -2.19573 0.171013
rclavicle 1.96105e-014 7.15935e-015
rhumerus -49.2832 33.2356 -120.356
rradius 104.652
rwrist -15.8927
rhand -23.0175 -4.66295
rfingers 7.12502
rthumb 3.42621 -34.6152
lclavicle 1.96105e-014 7.15935e-015
lhumerus -42.8669 -39.9839 117.619
lradius 107.27
lwrist 19.2485
lhand -27.2575 38.4143
lfingers 7.12502
lthumb -0.668762 68.393
rfemur -9.36118 2.45585 21.36
rtibia 9.75308
rfoot -14.3466 -9.40686
rtoes 3.54038
lfemur -7.65816 2.29377 -16.9374
ltibia 8.10997
lfoot -15.5613 2.76084
ltoes -8.68329
